<mxfile host="app.diagrams.net" modified="2024-01-13T05:07:12.850Z" agent="Mozilla/5.0 (Windows NT 10.0; Win64; x64) AppleWebKit/537.36 (KHTML, like Gecko) Chrome/120.0.0.0 Safari/537.36" etag="ays6--9g4TW9TXgMmmCg" version="22.1.18" type="onedrive">
  <diagram id="C5RBs43oDa-KdzZeNtuy" name="Page-1">
    <mxGraphModel grid="1" page="1" gridSize="10" guides="1" tooltips="1" connect="1" arrows="1" fold="1" pageScale="1" pageWidth="850" pageHeight="1100" math="0" shadow="0">
      <root>
        <mxCell id="WIyWlLk6GJQsqaUBKTNV-0" />
        <mxCell id="WIyWlLk6GJQsqaUBKTNV-1" parent="WIyWlLk6GJQsqaUBKTNV-0" />
        <mxCell id="M85RZjN9eOluCWL1hdMP-6" value="" style="edgeStyle=orthogonalEdgeStyle;rounded=0;orthogonalLoop=1;jettySize=auto;html=1;fillColor=#008a00;strokeColor=#005700;" edge="1" parent="WIyWlLk6GJQsqaUBKTNV-1" source="WIyWlLk6GJQsqaUBKTNV-3" target="xgHCsMbQQuUOjubakNLh-7">
          <mxGeometry relative="1" as="geometry" />
        </mxCell>
        <mxCell id="WIyWlLk6GJQsqaUBKTNV-3" value="Get list of site url&#39;s&lt;br&gt;&lt;i&gt;URL_Grabber.py&lt;/i&gt;" style="rounded=1;whiteSpace=wrap;html=1;fontSize=12;glass=0;strokeWidth=1;shadow=0;strokeColor=#005700;fillColor=#008a00;fontColor=#ffffff;" vertex="1" parent="WIyWlLk6GJQsqaUBKTNV-1">
          <mxGeometry x="210" y="120" width="120" height="40" as="geometry" />
        </mxCell>
        <mxCell id="xgHCsMbQQuUOjubakNLh-0" value="" style="endArrow=classic;html=1;rounded=0;exitX=1;exitY=0.5;exitDx=0;exitDy=0;" edge="1" parent="WIyWlLk6GJQsqaUBKTNV-1" source="WIyWlLk6GJQsqaUBKTNV-3" target="xgHCsMbQQuUOjubakNLh-1">
          <mxGeometry width="50" height="50" relative="1" as="geometry">
            <mxPoint x="380" y="165" as="sourcePoint" />
            <mxPoint x="360" y="140" as="targetPoint" />
          </mxGeometry>
        </mxCell>
        <mxCell id="xgHCsMbQQuUOjubakNLh-14" value="" style="edgeStyle=orthogonalEdgeStyle;rounded=0;orthogonalLoop=1;jettySize=auto;html=1;strokeColor=#001DBC;fillColor=#0050ef;" edge="1" parent="WIyWlLk6GJQsqaUBKTNV-1" source="xgHCsMbQQuUOjubakNLh-2" target="xgHCsMbQQuUOjubakNLh-9">
          <mxGeometry relative="1" as="geometry">
            <Array as="points">
              <mxPoint x="340" y="580" />
              <mxPoint x="340" y="670" />
            </Array>
          </mxGeometry>
        </mxCell>
        <mxCell id="xgHCsMbQQuUOjubakNLh-17" value="" style="edgeStyle=orthogonalEdgeStyle;rounded=0;orthogonalLoop=1;jettySize=auto;html=1;strokeColor=#005700;fillColor=#008a00;" edge="1" parent="WIyWlLk6GJQsqaUBKTNV-1" source="xgHCsMbQQuUOjubakNLh-2" target="xgHCsMbQQuUOjubakNLh-16">
          <mxGeometry relative="1" as="geometry" />
        </mxCell>
        <mxCell id="xgHCsMbQQuUOjubakNLh-2" value="Get stats information&lt;br&gt;&lt;i&gt;Stats_Grabber.py&lt;/i&gt;" style="rounded=1;whiteSpace=wrap;html=1;strokeColor=#005700;fillColor=#008a00;fontColor=#ffffff;" vertex="1" parent="WIyWlLk6GJQsqaUBKTNV-1">
          <mxGeometry x="211" y="560" width="120" height="40" as="geometry" />
        </mxCell>
        <mxCell id="M85RZjN9eOluCWL1hdMP-7" value="" style="edgeStyle=orthogonalEdgeStyle;rounded=0;orthogonalLoop=1;jettySize=auto;html=1;" edge="1" parent="WIyWlLk6GJQsqaUBKTNV-1" source="xgHCsMbQQuUOjubakNLh-3" target="xgHCsMbQQuUOjubakNLh-7">
          <mxGeometry relative="1" as="geometry" />
        </mxCell>
        <mxCell id="xgHCsMbQQuUOjubakNLh-3" value="MySQL&lt;br&gt;&lt;i&gt;mp_urls&lt;/i&gt;" style="rounded=1;whiteSpace=wrap;html=1;fillColor=#d80073;strokeColor=#A50040;fontColor=#ffffff;" vertex="1" parent="WIyWlLk6GJQsqaUBKTNV-1">
          <mxGeometry x="90" y="200" width="81" height="40" as="geometry" />
        </mxCell>
        <mxCell id="xgHCsMbQQuUOjubakNLh-5" value="Add table of route data to MySQL:&amp;nbsp;&lt;i&gt;mp_route_info&lt;/i&gt;" style="whiteSpace=wrap;html=1;rounded=1;fillColor=#0050ef;fontColor=#ffffff;strokeColor=#001DBC;" vertex="1" parent="WIyWlLk6GJQsqaUBKTNV-1">
          <mxGeometry x="371" y="200" width="160" height="40" as="geometry" />
        </mxCell>
        <mxCell id="xgHCsMbQQuUOjubakNLh-30" value="" style="edgeStyle=orthogonalEdgeStyle;rounded=0;orthogonalLoop=1;jettySize=auto;html=1;strokeColor=#005700;entryX=0.5;entryY=0;entryDx=0;entryDy=0;exitX=0.5;exitY=1;exitDx=0;exitDy=0;fillColor=#008a00;" edge="1" parent="WIyWlLk6GJQsqaUBKTNV-1" source="xgHCsMbQQuUOjubakNLh-7" target="xgHCsMbQQuUOjubakNLh-29">
          <mxGeometry relative="1" as="geometry">
            <Array as="points">
              <mxPoint x="270" y="260" />
              <mxPoint x="271" y="260" />
            </Array>
          </mxGeometry>
        </mxCell>
        <mxCell id="M85RZjN9eOluCWL1hdMP-9" value="" style="edgeStyle=orthogonalEdgeStyle;rounded=0;orthogonalLoop=1;jettySize=auto;html=1;fillColor=#0050ef;strokeColor=#001DBC;" edge="1" parent="WIyWlLk6GJQsqaUBKTNV-1" source="xgHCsMbQQuUOjubakNLh-7" target="xgHCsMbQQuUOjubakNLh-5">
          <mxGeometry relative="1" as="geometry" />
        </mxCell>
        <mxCell id="xgHCsMbQQuUOjubakNLh-7" value="Get route information&lt;br&gt;&lt;i&gt;Route_Grabber.py&lt;/i&gt;" style="rounded=1;whiteSpace=wrap;html=1;strokeColor=#005700;fillColor=#008a00;fontColor=#ffffff;" vertex="1" parent="WIyWlLk6GJQsqaUBKTNV-1">
          <mxGeometry x="210" y="200" width="120" height="40" as="geometry" />
        </mxCell>
        <mxCell id="xgHCsMbQQuUOjubakNLh-13" value="" style="edgeStyle=orthogonalEdgeStyle;rounded=0;orthogonalLoop=1;jettySize=auto;html=1;strokeColor=#A50040;fillColor=#d80073;" edge="1" parent="WIyWlLk6GJQsqaUBKTNV-1" source="xgHCsMbQQuUOjubakNLh-8" target="xgHCsMbQQuUOjubakNLh-2">
          <mxGeometry relative="1" as="geometry" />
        </mxCell>
        <mxCell id="xgHCsMbQQuUOjubakNLh-8" value="MySQL&lt;br&gt;&lt;i&gt;mp_urls&lt;/i&gt;" style="rounded=1;whiteSpace=wrap;html=1;fillColor=#d80073;strokeColor=#A50040;fontColor=#ffffff;" vertex="1" parent="WIyWlLk6GJQsqaUBKTNV-1">
          <mxGeometry x="90" y="560" width="81" height="40" as="geometry" />
        </mxCell>
        <mxCell id="xgHCsMbQQuUOjubakNLh-9" value="Add tables w/ route stats to MySQL:&amp;nbsp;&lt;br&gt;&lt;div style=&quot;text-align: left;&quot;&gt;&lt;i style=&quot;background-color: initial;&quot;&gt;&lt;span style=&quot;white-space: pre;&quot;&gt;&#x9;&lt;/span&gt;stats_count&lt;/i&gt;&lt;/div&gt;&lt;i&gt;&lt;div style=&quot;text-align: left;&quot;&gt;&lt;i style=&quot;background-color: initial;&quot;&gt;&lt;span style=&quot;white-space: pre;&quot;&gt;&#x9;&lt;/span&gt;stats_stars&lt;/i&gt;&lt;/div&gt;&lt;span style=&quot;white-space: pre;&quot;&gt;&lt;div style=&quot;text-align: left;&quot;&gt;&lt;i style=&quot;background-color: initial; white-space: normal;&quot;&gt;&lt;span style=&quot;white-space: pre;&quot;&gt;&#x9;&lt;/span&gt;stats_ticks&lt;/i&gt;&lt;/div&gt;&lt;/span&gt;&lt;span style=&quot;white-space: pre;&quot;&gt;&lt;div style=&quot;text-align: left;&quot;&gt;&lt;i style=&quot;background-color: initial; white-space: normal;&quot;&gt;&lt;span style=&quot;white-space: pre;&quot;&gt;&#x9;&lt;/span&gt;stats_todos&lt;/i&gt;&lt;/div&gt;&lt;/span&gt;&lt;span style=&quot;white-space: pre;&quot;&gt;&lt;div style=&quot;text-align: left;&quot;&gt;&lt;i style=&quot;background-color: initial; white-space: normal;&quot;&gt;&lt;span style=&quot;white-space: pre;&quot;&gt;&#x9;&lt;/span&gt;stats_ratings&lt;/i&gt;&lt;/div&gt;&lt;/span&gt;&lt;span style=&quot;white-space: pre;&quot;&gt;&lt;div style=&quot;text-align: left;&quot;&gt;&lt;i style=&quot;background-color: initial; white-space: normal;&quot;&gt;&lt;span style=&quot;white-space: pre;&quot;&gt;&#x9;&lt;/span&gt;stats_count&lt;/i&gt;&lt;/div&gt;&lt;/span&gt;&lt;/i&gt;" style="whiteSpace=wrap;html=1;rounded=1;align=center;fillColor=#0050ef;fontColor=#ffffff;strokeColor=#001DBC;" vertex="1" parent="WIyWlLk6GJQsqaUBKTNV-1">
          <mxGeometry x="370" y="600" width="160" height="130" as="geometry" />
        </mxCell>
        <mxCell id="xgHCsMbQQuUOjubakNLh-22" value="" style="edgeStyle=orthogonalEdgeStyle;rounded=0;orthogonalLoop=1;jettySize=auto;html=1;strokeColor=#001DBC;fillColor=#0050ef;" edge="1" parent="WIyWlLk6GJQsqaUBKTNV-1" source="xgHCsMbQQuUOjubakNLh-16" target="xgHCsMbQQuUOjubakNLh-21">
          <mxGeometry relative="1" as="geometry" />
        </mxCell>
        <mxCell id="xgHCsMbQQuUOjubakNLh-16" value="Check stats counts&lt;br&gt;&lt;i&gt;stats_check.py&lt;/i&gt;" style="whiteSpace=wrap;html=1;rounded=1;strokeColor=#005700;fillColor=#008a00;fontColor=#ffffff;" vertex="1" parent="WIyWlLk6GJQsqaUBKTNV-1">
          <mxGeometry x="211" y="760" width="120" height="40" as="geometry" />
        </mxCell>
        <mxCell id="xgHCsMbQQuUOjubakNLh-18" value="" style="edgeStyle=orthogonalEdgeStyle;rounded=0;orthogonalLoop=1;jettySize=auto;html=1;strokeColor=#001DBC;fillColor=#0050ef;" edge="1" parent="WIyWlLk6GJQsqaUBKTNV-1" source="WIyWlLk6GJQsqaUBKTNV-3" target="xgHCsMbQQuUOjubakNLh-1">
          <mxGeometry relative="1" as="geometry">
            <mxPoint x="320" y="140" as="sourcePoint" />
            <mxPoint x="640" y="220" as="targetPoint" />
          </mxGeometry>
        </mxCell>
        <mxCell id="xgHCsMbQQuUOjubakNLh-1" value="Add table of URL&#39;s to MySQL:&amp;nbsp;&lt;i&gt;mp_urls&lt;/i&gt;" style="rounded=1;whiteSpace=wrap;html=1;fillColor=#0050ef;fontColor=#ffffff;strokeColor=#001DBC;" vertex="1" parent="WIyWlLk6GJQsqaUBKTNV-1">
          <mxGeometry x="370" y="120" width="160" height="40" as="geometry" />
        </mxCell>
        <mxCell id="xgHCsMbQQuUOjubakNLh-21" value="Add results of check to MySQL: &lt;i&gt;stats_check&lt;/i&gt;" style="whiteSpace=wrap;html=1;rounded=1;fillColor=#0050ef;fontColor=#ffffff;strokeColor=#001DBC;" vertex="1" parent="WIyWlLk6GJQsqaUBKTNV-1">
          <mxGeometry x="371" y="760" width="159" height="40" as="geometry" />
        </mxCell>
        <mxCell id="xgHCsMbQQuUOjubakNLh-24" value="" style="edgeStyle=orthogonalEdgeStyle;rounded=0;orthogonalLoop=1;jettySize=auto;html=1;strokeColor=#A50040;fillColor=#d80073;" edge="1" parent="WIyWlLk6GJQsqaUBKTNV-1" source="xgHCsMbQQuUOjubakNLh-23" target="xgHCsMbQQuUOjubakNLh-16">
          <mxGeometry relative="1" as="geometry" />
        </mxCell>
        <mxCell id="xgHCsMbQQuUOjubakNLh-23" value="&amp;nbsp;MySQL:&amp;nbsp;&lt;br&gt;&lt;div style=&quot;text-align: left;&quot;&gt;&lt;i style=&quot;background-color: initial;&quot;&gt;stats_count&lt;/i&gt;&lt;/div&gt;&lt;i&gt;&lt;div style=&quot;text-align: left;&quot;&gt;&lt;i style=&quot;background-color: initial;&quot;&gt;stats_stars&lt;/i&gt;&lt;/div&gt;&lt;span style=&quot;white-space: pre;&quot;&gt;&lt;div style=&quot;text-align: left;&quot;&gt;&lt;i style=&quot;background-color: initial; white-space: normal;&quot;&gt;stats_ticks&lt;/i&gt;&lt;/div&gt;&lt;/span&gt;&lt;span style=&quot;white-space: pre;&quot;&gt;&lt;div style=&quot;text-align: left;&quot;&gt;&lt;i style=&quot;background-color: initial; white-space: normal;&quot;&gt;stats_todos&lt;/i&gt;&lt;/div&gt;&lt;/span&gt;&lt;span style=&quot;white-space: pre;&quot;&gt;&lt;div style=&quot;text-align: left;&quot;&gt;&lt;i style=&quot;background-color: initial; white-space: normal;&quot;&gt;stats_ratings&lt;/i&gt;&lt;/div&gt;&lt;/span&gt;&lt;span style=&quot;white-space: pre;&quot;&gt;&lt;div style=&quot;text-align: left;&quot;&gt;&lt;i style=&quot;background-color: initial; white-space: normal;&quot;&gt;stats_count&lt;/i&gt;&lt;/div&gt;&lt;/span&gt;&lt;/i&gt;" style="whiteSpace=wrap;html=1;rounded=1;align=center;fillColor=#d80073;strokeColor=#A50040;fontColor=#ffffff;" vertex="1" parent="WIyWlLk6GJQsqaUBKTNV-1">
          <mxGeometry x="90" y="720" width="81" height="120" as="geometry" />
        </mxCell>
        <mxCell id="xgHCsMbQQuUOjubakNLh-26" value="Send page_id of any mistmatching stats count checks back to &lt;i&gt;stats_grabber.py&lt;br&gt;&lt;/i&gt;" style="text;html=1;strokeColor=none;fillColor=none;align=center;verticalAlign=middle;whiteSpace=wrap;rounded=0;rotation=0;" vertex="1" parent="WIyWlLk6GJQsqaUBKTNV-1">
          <mxGeometry x="50" y="880" width="220" height="40" as="geometry" />
        </mxCell>
        <mxCell id="xgHCsMbQQuUOjubakNLh-35" value="" style="edgeStyle=orthogonalEdgeStyle;rounded=0;orthogonalLoop=1;jettySize=auto;html=1;strokeColor=#001DBC;fillColor=#0050ef;" edge="1" parent="WIyWlLk6GJQsqaUBKTNV-1" source="xgHCsMbQQuUOjubakNLh-29" target="xgHCsMbQQuUOjubakNLh-34">
          <mxGeometry relative="1" as="geometry" />
        </mxCell>
        <mxCell id="M85RZjN9eOluCWL1hdMP-4" value="" style="edgeStyle=orthogonalEdgeStyle;rounded=0;orthogonalLoop=1;jettySize=auto;html=1;fillColor=#008a00;strokeColor=#005700;" edge="1" parent="WIyWlLk6GJQsqaUBKTNV-1" source="xgHCsMbQQuUOjubakNLh-29" target="xgHCsMbQQuUOjubakNLh-38">
          <mxGeometry relative="1" as="geometry" />
        </mxCell>
        <mxCell id="xgHCsMbQQuUOjubakNLh-29" value="Clean up locations&lt;br&gt;&lt;i&gt;Location_Cleaner.py&lt;/i&gt;" style="whiteSpace=wrap;html=1;rounded=1;strokeColor=#005700;fillColor=#008a00;fontColor=#ffffff;" vertex="1" parent="WIyWlLk6GJQsqaUBKTNV-1">
          <mxGeometry x="210" y="280" width="120" height="40" as="geometry" />
        </mxCell>
        <mxCell id="xgHCsMbQQuUOjubakNLh-31" value="" style="endArrow=classic;html=1;rounded=0;exitX=0.5;exitY=1;exitDx=0;exitDy=0;entryX=0.25;entryY=0;entryDx=0;entryDy=0;edgeStyle=orthogonalEdgeStyle;strokeColor=#005700;fillColor=#008a00;" edge="1" parent="WIyWlLk6GJQsqaUBKTNV-1" source="xgHCsMbQQuUOjubakNLh-16" target="xgHCsMbQQuUOjubakNLh-2">
          <mxGeometry relative="1" as="geometry">
            <mxPoint x="70" y="890" as="sourcePoint" />
            <mxPoint x="70" y="720" as="targetPoint" />
            <Array as="points">
              <mxPoint x="271" y="880" />
              <mxPoint x="50" y="880" />
              <mxPoint x="50" y="530" />
              <mxPoint x="241" y="530" />
            </Array>
          </mxGeometry>
        </mxCell>
        <mxCell id="xgHCsMbQQuUOjubakNLh-33" value="&lt;font style=&quot;font-size: 15px;&quot;&gt;&amp;nbsp; Retry 1x&amp;nbsp;&amp;nbsp;&lt;/font&gt;" style="edgeLabel;html=1;align=center;verticalAlign=middle;resizable=0;points=[];rotation=-90;" connectable="0" vertex="1" parent="xgHCsMbQQuUOjubakNLh-31">
          <mxGeometry x="-0.0235" relative="1" as="geometry">
            <mxPoint y="-66" as="offset" />
          </mxGeometry>
        </mxCell>
        <mxCell id="xgHCsMbQQuUOjubakNLh-34" value="Add table with location data to MySQL &lt;i&gt;route_location&lt;/i&gt;" style="whiteSpace=wrap;html=1;strokeColor=#001DBC;rounded=1;fillColor=#0050ef;fontColor=#ffffff;" vertex="1" parent="WIyWlLk6GJQsqaUBKTNV-1">
          <mxGeometry x="371" y="280" width="160" height="40" as="geometry" />
        </mxCell>
        <mxCell id="xgHCsMbQQuUOjubakNLh-41" value="" style="edgeStyle=orthogonalEdgeStyle;rounded=0;orthogonalLoop=1;jettySize=auto;html=1;strokeColor=#001DBC;fillColor=#0050ef;" edge="1" parent="WIyWlLk6GJQsqaUBKTNV-1" source="xgHCsMbQQuUOjubakNLh-38" target="xgHCsMbQQuUOjubakNLh-40">
          <mxGeometry relative="1" as="geometry" />
        </mxCell>
        <mxCell id="M85RZjN9eOluCWL1hdMP-5" value="" style="edgeStyle=orthogonalEdgeStyle;rounded=0;orthogonalLoop=1;jettySize=auto;html=1;fillColor=#008a00;strokeColor=#005700;" edge="1" parent="WIyWlLk6GJQsqaUBKTNV-1" source="xgHCsMbQQuUOjubakNLh-38" target="xgHCsMbQQuUOjubakNLh-44">
          <mxGeometry relative="1" as="geometry" />
        </mxCell>
        <mxCell id="xgHCsMbQQuUOjubakNLh-38" value="Cleanup grades&lt;br&gt;&lt;i&gt;grade_cleaner.py&lt;/i&gt;" style="rounded=1;whiteSpace=wrap;html=1;strokeColor=#005700;fillColor=#008a00;fontColor=#ffffff;" vertex="1" parent="WIyWlLk6GJQsqaUBKTNV-1">
          <mxGeometry x="211" y="360" width="120" height="40" as="geometry" />
        </mxCell>
        <mxCell id="xgHCsMbQQuUOjubakNLh-40" value="Add table with grade data to MySQL&amp;nbsp;&lt;i style=&quot;--tw-translate-x: 0; --tw-translate-y: 0; --tw-rotate: 0; --tw-skew-x: 0; --tw-skew-y: 0; --tw-scale-x: 1; --tw-scale-y: 1; --tw-pan-x: ; --tw-pan-y: ; --tw-pinch-zoom: ; --tw-scroll-snap-strictness: proximity; --tw-ordinal: ; --tw-slashed-zero: ; --tw-numeric-figure: ; --tw-numeric-spacing: ; --tw-numeric-fraction: ; --tw-ring-inset: ; --tw-ring-offset-width: 0px; --tw-ring-offset-color: #fff; --tw-ring-color: rgb(59 130 246 / .5); --tw-ring-offset-shadow: 0 0 #0000; --tw-ring-shadow: 0 0 #0000; --tw-shadow: 0 0 #0000; --tw-shadow-colored: 0 0 #0000; --tw-blur: ; --tw-brightness: ; --tw-contrast: ; --tw-grayscale: ; --tw-hue-rotate: ; --tw-invert: ; --tw-saturate: ; --tw-sepia: ; --tw-drop-shadow: ; --tw-backdrop-blur: ; --tw-backdrop-brightness: ; --tw-backdrop-contrast: ; --tw-backdrop-grayscale: ; --tw-backdrop-hue-rotate: ; --tw-backdrop-invert: ; --tw-backdrop-opacity: ; --tw-backdrop-saturate: ; --tw-backdrop-sepia: ; border-color: var(--border-color);&quot;&gt;route_grades&lt;/i&gt;" style="whiteSpace=wrap;html=1;rounded=1;fillColor=#0050ef;strokeColor=#001DBC;fontColor=#ffffff;" vertex="1" parent="WIyWlLk6GJQsqaUBKTNV-1">
          <mxGeometry x="371" y="360" width="160" height="40" as="geometry" />
        </mxCell>
        <mxCell id="xgHCsMbQQuUOjubakNLh-43" value="" style="edgeStyle=orthogonalEdgeStyle;rounded=0;orthogonalLoop=1;jettySize=auto;html=1;strokeColor=#001DBC;fillColor=#0050ef;" edge="1" parent="WIyWlLk6GJQsqaUBKTNV-1" source="xgHCsMbQQuUOjubakNLh-44" target="xgHCsMbQQuUOjubakNLh-45">
          <mxGeometry relative="1" as="geometry" />
        </mxCell>
        <mxCell id="M85RZjN9eOluCWL1hdMP-10" value="" style="edgeStyle=orthogonalEdgeStyle;rounded=0;orthogonalLoop=1;jettySize=auto;html=1;fillColor=#008a00;strokeColor=#005700;" edge="1" parent="WIyWlLk6GJQsqaUBKTNV-1" source="xgHCsMbQQuUOjubakNLh-44" target="xgHCsMbQQuUOjubakNLh-2">
          <mxGeometry relative="1" as="geometry" />
        </mxCell>
        <mxCell id="xgHCsMbQQuUOjubakNLh-44" value="Cleanup page titles&lt;br&gt;&lt;i&gt;Titles_Cleaner.py&lt;/i&gt;" style="rounded=1;whiteSpace=wrap;html=1;strokeColor=#005700;fillColor=#008a00;fontColor=#ffffff;" vertex="1" parent="WIyWlLk6GJQsqaUBKTNV-1">
          <mxGeometry x="211" y="440" width="120" height="40" as="geometry" />
        </mxCell>
        <mxCell id="xgHCsMbQQuUOjubakNLh-45" value="Add tables with title data to MySQL:&lt;br&gt;&lt;i style=&quot;--tw-translate-x: 0; --tw-translate-y: 0; --tw-rotate: 0; --tw-skew-x: 0; --tw-skew-y: 0; --tw-scale-x: 1; --tw-scale-y: 1; --tw-pan-x: ; --tw-pan-y: ; --tw-pinch-zoom: ; --tw-scroll-snap-strictness: proximity; --tw-ordinal: ; --tw-slashed-zero: ; --tw-numeric-figure: ; --tw-numeric-spacing: ; --tw-numeric-fraction: ; --tw-ring-inset: ; --tw-ring-offset-width: 0px; --tw-ring-offset-color: #fff; --tw-ring-color: rgb(59 130 246 / .5); --tw-ring-offset-shadow: 0 0 #0000; --tw-ring-shadow: 0 0 #0000; --tw-shadow: 0 0 #0000; --tw-shadow-colored: 0 0 #0000; --tw-blur: ; --tw-brightness: ; --tw-contrast: ; --tw-grayscale: ; --tw-hue-rotate: ; --tw-invert: ; --tw-saturate: ; --tw-sepia: ; --tw-drop-shadow: ; --tw-backdrop-blur: ; --tw-backdrop-brightness: ; --tw-backdrop-contrast: ; --tw-backdrop-grayscale: ; --tw-backdrop-hue-rotate: ; --tw-backdrop-invert: ; --tw-backdrop-opacity: ; --tw-backdrop-saturate: ; --tw-backdrop-sepia: ; border-color: var(--border-color);&quot;&gt;route_descriptions&lt;br&gt;route_directions&lt;br&gt;route_misc&lt;br&gt;route_protection&lt;br&gt;&lt;/i&gt;" style="whiteSpace=wrap;html=1;rounded=1;fillColor=#0050ef;strokeColor=#001DBC;fontColor=#ffffff;" vertex="1" parent="WIyWlLk6GJQsqaUBKTNV-1">
          <mxGeometry x="371" y="440" width="160" height="120" as="geometry" />
        </mxCell>
        <mxCell id="xgHCsMbQQuUOjubakNLh-50" value="" style="edgeStyle=orthogonalEdgeStyle;rounded=0;orthogonalLoop=1;jettySize=auto;html=1;entryX=0;entryY=0.5;entryDx=0;entryDy=0;strokeColor=#A50040;fillColor=#d80073;" edge="1" parent="WIyWlLk6GJQsqaUBKTNV-1" source="xgHCsMbQQuUOjubakNLh-49" target="xgHCsMbQQuUOjubakNLh-38">
          <mxGeometry relative="1" as="geometry">
            <Array as="points">
              <mxPoint x="171" y="380" />
              <mxPoint x="171" y="380" />
            </Array>
          </mxGeometry>
        </mxCell>
        <mxCell id="xgHCsMbQQuUOjubakNLh-49" value="MySQL&lt;br&gt;&lt;i&gt;mp_urls&lt;/i&gt;" style="rounded=1;whiteSpace=wrap;html=1;fillColor=#d80073;strokeColor=#A50040;fontColor=#ffffff;" vertex="1" parent="WIyWlLk6GJQsqaUBKTNV-1">
          <mxGeometry x="90" y="360" width="81" height="40" as="geometry" />
        </mxCell>
        <mxCell id="xgHCsMbQQuUOjubakNLh-51" value="" style="endArrow=classic;html=1;rounded=0;exitX=1;exitY=0;exitDx=0;exitDy=0;edgeStyle=orthogonalEdgeStyle;entryX=0;entryY=0.5;entryDx=0;entryDy=0;strokeColor=#A50040;fillColor=#d80073;" edge="1" parent="WIyWlLk6GJQsqaUBKTNV-1" source="xgHCsMbQQuUOjubakNLh-49" target="xgHCsMbQQuUOjubakNLh-29">
          <mxGeometry width="50" height="50" relative="1" as="geometry">
            <mxPoint x="121" y="290" as="sourcePoint" />
            <mxPoint x="171" y="240" as="targetPoint" />
            <Array as="points">
              <mxPoint x="130" y="360" />
              <mxPoint x="130" y="300" />
            </Array>
          </mxGeometry>
        </mxCell>
        <mxCell id="xgHCsMbQQuUOjubakNLh-52" value="" style="endArrow=classic;html=1;rounded=0;edgeStyle=orthogonalEdgeStyle;entryX=0;entryY=0.5;entryDx=0;entryDy=0;exitX=1;exitY=1;exitDx=0;exitDy=0;strokeColor=#A50040;fillColor=#d80073;" edge="1" parent="WIyWlLk6GJQsqaUBKTNV-1" source="xgHCsMbQQuUOjubakNLh-49" target="xgHCsMbQQuUOjubakNLh-44">
          <mxGeometry width="50" height="50" relative="1" as="geometry">
            <mxPoint x="121" y="290" as="sourcePoint" />
            <mxPoint x="171" y="240" as="targetPoint" />
            <Array as="points">
              <mxPoint x="130" y="400" />
              <mxPoint x="130" y="460" />
            </Array>
          </mxGeometry>
        </mxCell>
        <mxCell id="xgHCsMbQQuUOjubakNLh-57" value="" style="edgeStyle=orthogonalEdgeStyle;rounded=0;orthogonalLoop=1;jettySize=auto;html=1;fillColor=#0050ef;strokeColor=#001DBC;" edge="1" parent="WIyWlLk6GJQsqaUBKTNV-1" source="xgHCsMbQQuUOjubakNLh-53" target="xgHCsMbQQuUOjubakNLh-56">
          <mxGeometry relative="1" as="geometry" />
        </mxCell>
        <mxCell id="xgHCsMbQQuUOjubakNLh-53" value="Run statistical analysis on data &lt;i&gt;Statistical_Analysis.py&lt;/i&gt;" style="whiteSpace=wrap;html=1;strokeColor=#005700;rounded=1;fillColor=#008a00;fontColor=#ffffff;" vertex="1" parent="WIyWlLk6GJQsqaUBKTNV-1">
          <mxGeometry x="211" y="960" width="120" height="80" as="geometry" />
        </mxCell>
        <mxCell id="xgHCsMbQQuUOjubakNLh-56" value="Add statistical data to MySQL: &lt;i&gt;stats_analysis&lt;/i&gt;" style="whiteSpace=wrap;html=1;fillColor=#0050ef;strokeColor=#001DBC;fontColor=#ffffff;rounded=1;" vertex="1" parent="WIyWlLk6GJQsqaUBKTNV-1">
          <mxGeometry x="370" y="980" width="160" height="40" as="geometry" />
        </mxCell>
        <mxCell id="xgHCsMbQQuUOjubakNLh-62" value="Execute" style="rounded=1;whiteSpace=wrap;html=1;fillColor=#008a00;fontColor=#ffffff;strokeColor=#005700;" vertex="1" parent="WIyWlLk6GJQsqaUBKTNV-1">
          <mxGeometry y="160" width="50" height="30" as="geometry" />
        </mxCell>
        <mxCell id="xgHCsMbQQuUOjubakNLh-63" value="Input" style="rounded=1;whiteSpace=wrap;html=1;fillColor=#d80073;fontColor=#ffffff;strokeColor=#A50040;" vertex="1" parent="WIyWlLk6GJQsqaUBKTNV-1">
          <mxGeometry y="120" width="50" height="30" as="geometry" />
        </mxCell>
        <mxCell id="xgHCsMbQQuUOjubakNLh-64" value="Output" style="rounded=1;whiteSpace=wrap;html=1;fillColor=#0050ef;fontColor=#ffffff;strokeColor=#001DBC;" vertex="1" parent="WIyWlLk6GJQsqaUBKTNV-1">
          <mxGeometry y="80" width="50" height="30" as="geometry" />
        </mxCell>
        <mxCell id="xgHCsMbQQuUOjubakNLh-66" value="&lt;h1&gt;&lt;font style=&quot;font-size: 24px;&quot;&gt;Project Flow Chart&lt;/font&gt;&lt;/h1&gt;" style="text;html=1;fillColor=#fa6800;align=center;verticalAlign=middle;whiteSpace=wrap;rounded=0;strokeColor=#C73500;fontColor=#000000;" vertex="1" parent="WIyWlLk6GJQsqaUBKTNV-1">
          <mxGeometry x="130" y="40" width="280" height="40" as="geometry" />
        </mxCell>
        <mxCell id="M85RZjN9eOluCWL1hdMP-11" value="" style="endArrow=classic;html=1;rounded=0;exitX=0.75;exitY=1;exitDx=0;exitDy=0;entryX=0.5;entryY=0;entryDx=0;entryDy=0;edgeStyle=orthogonalEdgeStyle;fillColor=#008a00;strokeColor=#005700;" edge="1" parent="WIyWlLk6GJQsqaUBKTNV-1" source="xgHCsMbQQuUOjubakNLh-16" target="xgHCsMbQQuUOjubakNLh-53">
          <mxGeometry width="50" height="50" relative="1" as="geometry">
            <mxPoint x="331" y="900" as="sourcePoint" />
            <mxPoint x="381" y="850" as="targetPoint" />
            <Array as="points">
              <mxPoint x="301" y="920" />
              <mxPoint x="271" y="920" />
            </Array>
          </mxGeometry>
        </mxCell>
      </root>
    </mxGraphModel>
  </diagram>
</mxfile>
